<svg width="254" height="15" viewBox="0 0 254 15" fill="none" xmlns="http://www.w3.org/2000/svg">
<path d="M3.99 11L0.308 1.2H1.582L4.676 9.754L7.798 1.2H9.044L5.362 11H3.99ZM11.0316 2.516C10.7982 2.516 10.6022 2.44133 10.4436 2.292C10.2942 2.13333 10.2196 1.93733 10.2196 1.704C10.2196 1.48 10.2942 1.29333 10.4436 1.144C10.6022 0.994666 10.7982 0.92 11.0316 0.92C11.2556 0.92 11.4469 0.994666 11.6056 1.144C11.7642 1.29333 11.8436 1.48 11.8436 1.704C11.8436 1.93733 11.7642 2.13333 11.6056 2.292C11.4469 2.44133 11.2556 2.516 11.0316 2.516ZM10.4436 11V4.056H11.6196V11H10.4436ZM16.3272 11.168C15.4965 11.168 14.8058 10.958 14.2552 10.538C13.7045 10.118 13.3825 9.54867 13.2892 8.83H14.4932C14.5678 9.194 14.7592 9.51133 15.0672 9.782C15.3845 10.0433 15.8092 10.174 16.3412 10.174C16.8358 10.174 17.1998 10.0713 17.4332 9.866C17.6665 9.65133 17.7832 9.39933 17.7832 9.11C17.7832 8.69 17.6292 8.41 17.3212 8.27C17.0225 8.13 16.5978 8.004 16.0472 7.892C15.6738 7.81733 15.3005 7.71 14.9272 7.57C14.5538 7.43 14.2412 7.234 13.9892 6.982C13.7372 6.72067 13.6112 6.38 13.6112 5.96C13.6112 5.35333 13.8352 4.85867 14.2832 4.476C14.7405 4.084 15.3565 3.888 16.1312 3.888C16.8685 3.888 17.4705 4.07467 17.9372 4.448C18.4132 4.812 18.6885 5.33467 18.7632 6.016H17.6012C17.5545 5.66133 17.4005 5.386 17.1392 5.19C16.8872 4.98467 16.5465 4.882 16.1172 4.882C15.6972 4.882 15.3705 4.97067 15.1372 5.148C14.9132 5.32533 14.8012 5.55867 14.8012 5.848C14.8012 6.128 14.9458 6.34733 15.2352 6.506C15.5338 6.66467 15.9352 6.8 16.4392 6.912C16.8685 7.00533 17.2745 7.122 17.6572 7.262C18.0492 7.39267 18.3665 7.59333 18.6092 7.864C18.8612 8.12533 18.9872 8.508 18.9872 9.012C18.9965 9.63733 18.7585 10.1553 18.2732 10.566C17.7972 10.9673 17.1485 11.168 16.3272 11.168ZM23.2012 11.168C22.3798 11.168 21.7265 10.9207 21.2412 10.426C20.7558 9.922 20.5132 9.152 20.5132 8.116V4.056H21.6892V7.99C21.6892 9.43667 22.2818 10.16 23.4672 10.16C24.0738 10.16 24.5732 9.94533 24.9652 9.516C25.3665 9.07733 25.5672 8.45667 25.5672 7.654V4.056H26.7432V11H25.6792L25.5952 9.754C25.3805 10.1927 25.0585 10.538 24.6292 10.79C24.2092 11.042 23.7332 11.168 23.2012 11.168ZM30.9889 11.168C30.4102 11.168 29.9296 11.07 29.5469 10.874C29.1642 10.678 28.8796 10.4167 28.6929 10.09C28.5062 9.76333 28.4129 9.40867 28.4129 9.026C28.4129 8.31667 28.6836 7.77067 29.2249 7.388C29.7662 7.00533 30.5036 6.814 31.4369 6.814H33.3129V6.73C33.3129 6.12333 33.1542 5.666 32.8369 5.358C32.5196 5.04067 32.0949 4.882 31.5629 4.882C31.1056 4.882 30.7089 4.99867 30.3729 5.232C30.0462 5.456 29.8409 5.78733 29.7569 6.226H28.5529C28.5996 5.722 28.7676 5.29733 29.0569 4.952C29.3556 4.60667 29.7242 4.34533 30.1629 4.168C30.6016 3.98133 31.0682 3.888 31.5629 3.888C32.5336 3.888 33.2616 4.14933 33.7469 4.672C34.2416 5.18533 34.4889 5.87133 34.4889 6.73V11H33.4389L33.3689 9.754C33.1729 10.146 32.8836 10.482 32.5009 10.762C32.1276 11.0327 31.6236 11.168 30.9889 11.168ZM31.1709 10.174C31.6189 10.174 32.0016 10.0573 32.3189 9.824C32.6456 9.59067 32.8929 9.28733 33.0609 8.914C33.2289 8.54067 33.3129 8.14867 33.3129 7.738V7.724H31.5349C30.8442 7.724 30.3542 7.84533 30.0649 8.088C29.7849 8.32133 29.6449 8.61533 29.6449 8.97C29.6449 9.334 29.7756 9.628 30.0369 9.852C30.3076 10.0667 30.6856 10.174 31.1709 10.174ZM36.2531 11V0.92H37.4291V11H36.2531ZM40.0706 2.516C39.8373 2.516 39.6413 2.44133 39.4826 2.292C39.3333 2.13333 39.2586 1.93733 39.2586 1.704C39.2586 1.48 39.3333 1.29333 39.4826 1.144C39.6413 0.994666 39.8373 0.92 40.0706 0.92C40.2946 0.92 40.486 0.994666 40.6446 1.144C40.8033 1.29333 40.8826 1.48 40.8826 1.704C40.8826 1.93733 40.8033 2.13333 40.6446 2.292C40.486 2.44133 40.2946 2.516 40.0706 2.516ZM39.4826 11V4.056H40.6586V11H39.4826ZM42.2302 11V10.034L46.0942 5.036H42.3002V4.056H47.4102V5.022L43.5462 10.02H47.4802V11H42.2302ZM52.1583 11.168C51.4956 11.168 50.9076 11.0187 50.3943 10.72C49.881 10.412 49.475 9.98733 49.1763 9.446C48.887 8.90467 48.7423 8.26533 48.7423 7.528C48.7423 6.8 48.887 6.16533 49.1763 5.624C49.4656 5.07333 49.867 4.64867 50.3803 4.35C50.903 4.042 51.505 3.888 52.1863 3.888C52.8583 3.888 53.437 4.042 53.9223 4.35C54.417 4.64867 54.795 5.04533 55.0563 5.54C55.3176 6.03467 55.4483 6.56667 55.4483 7.136C55.4483 7.23867 55.4436 7.34133 55.4343 7.444C55.4343 7.54667 55.4343 7.66333 55.4343 7.794H49.9043C49.9323 8.326 50.0536 8.76933 50.2683 9.124C50.4923 9.46933 50.7676 9.73067 51.0943 9.908C51.4303 10.0853 51.785 10.174 52.1583 10.174C52.6436 10.174 53.0496 10.062 53.3763 9.838C53.703 9.614 53.941 9.31067 54.0903 8.928H55.2523C55.0656 9.572 54.7063 10.1087 54.1743 10.538C53.6516 10.958 52.9796 11.168 52.1583 11.168ZM52.1583 4.882C51.5983 4.882 51.099 5.05467 50.6603 5.4C50.231 5.736 49.9836 6.23067 49.9183 6.884H54.2863C54.2583 6.25867 54.0436 5.76867 53.6423 5.414C53.241 5.05933 52.7463 4.882 52.1583 4.882ZM63.0221 11.168C62.4434 11.168 61.9628 11.07 61.5801 10.874C61.1974 10.678 60.9128 10.4167 60.7261 10.09C60.5394 9.76333 60.4461 9.40867 60.4461 9.026C60.4461 8.31667 60.7168 7.77067 61.2581 7.388C61.7994 7.00533 62.5368 6.814 63.4701 6.814H65.3461V6.73C65.3461 6.12333 65.1874 5.666 64.8701 5.358C64.5528 5.04067 64.1281 4.882 63.5961 4.882C63.1388 4.882 62.7421 4.99867 62.4061 5.232C62.0794 5.456 61.8741 5.78733 61.7901 6.226H60.5861C60.6328 5.722 60.8008 5.29733 61.0901 4.952C61.3888 4.60667 61.7574 4.34533 62.1961 4.168C62.6348 3.98133 63.1014 3.888 63.5961 3.888C64.5668 3.888 65.2948 4.14933 65.7801 4.672C66.2748 5.18533 66.5221 5.87133 66.5221 6.73V11H65.4721L65.4021 9.754C65.2061 10.146 64.9168 10.482 64.5341 10.762C64.1608 11.0327 63.6568 11.168 63.0221 11.168ZM63.2041 10.174C63.6521 10.174 64.0348 10.0573 64.3521 9.824C64.6788 9.59067 64.9261 9.28733 65.0941 8.914C65.2621 8.54067 65.3461 8.14867 65.3461 7.738V7.724H63.5681C62.8774 7.724 62.3874 7.84533 62.0981 8.088C61.8181 8.32133 61.6781 8.61533 61.6781 8.97C61.6781 9.334 61.8088 9.628 62.0701 9.852C62.3408 10.0667 62.7188 10.174 63.2041 10.174ZM70.9463 11.168C70.1156 11.168 69.425 10.958 68.8743 10.538C68.3236 10.118 68.0016 9.54867 67.9083 8.83H69.1123C69.187 9.194 69.3783 9.51133 69.6863 9.782C70.0036 10.0433 70.4283 10.174 70.9603 10.174C71.455 10.174 71.819 10.0713 72.0523 9.866C72.2856 9.65133 72.4023 9.39933 72.4023 9.11C72.4023 8.69 72.2483 8.41 71.9403 8.27C71.6416 8.13 71.217 8.004 70.6663 7.892C70.293 7.81733 69.9196 7.71 69.5463 7.57C69.173 7.43 68.8603 7.234 68.6083 6.982C68.3563 6.72067 68.2303 6.38 68.2303 5.96C68.2303 5.35333 68.4543 4.85867 68.9023 4.476C69.3596 4.084 69.9756 3.888 70.7503 3.888C71.4876 3.888 72.0896 4.07467 72.5563 4.448C73.0323 4.812 73.3076 5.33467 73.3823 6.016H72.2203C72.1736 5.66133 72.0196 5.386 71.7583 5.19C71.5063 4.98467 71.1656 4.882 70.7363 4.882C70.3163 4.882 69.9896 4.97067 69.7563 5.148C69.5323 5.32533 69.4203 5.55867 69.4203 5.848C69.4203 6.128 69.565 6.34733 69.8543 6.506C70.153 6.66467 70.5543 6.8 71.0583 6.912C71.4876 7.00533 71.8936 7.122 72.2763 7.262C72.6683 7.39267 72.9856 7.59333 73.2283 7.864C73.4803 8.12533 73.6063 8.508 73.6063 9.012C73.6156 9.63733 73.3776 10.1553 72.8923 10.566C72.4163 10.9673 71.7676 11.168 70.9463 11.168ZM78.9914 11V4.056H80.0554L80.1254 5.302C80.3494 4.86333 80.6714 4.518 81.0914 4.266C81.5114 4.014 81.9874 3.888 82.5194 3.888C83.3407 3.888 83.9941 4.14 84.4794 4.644C84.9741 5.13867 85.2214 5.904 85.2214 6.94V11H84.0454V7.066C84.0454 5.61933 83.4481 4.896 82.2534 4.896C81.6561 4.896 81.1567 5.11533 80.7554 5.554C80.3634 5.98333 80.1674 6.59933 80.1674 7.402V11H78.9914ZM90.1671 11.168C89.5138 11.168 88.9258 11.0187 88.4031 10.72C87.8804 10.4213 87.4651 10.0013 87.1571 9.46C86.8584 8.90933 86.7091 8.26533 86.7091 7.528C86.7091 6.79067 86.8631 6.15133 87.1711 5.61C87.4791 5.05933 87.8944 4.63467 88.4171 4.336C88.9491 4.03733 89.5418 3.888 90.1951 3.888C90.8484 3.888 91.4364 4.03733 91.9591 4.336C92.4818 4.63467 92.8924 5.05933 93.1911 5.61C93.4991 6.15133 93.6531 6.79067 93.6531 7.528C93.6531 8.26533 93.4991 8.90933 93.1911 9.46C92.8831 10.0013 92.4631 10.4213 91.9311 10.72C91.4084 11.0187 90.8204 11.168 90.1671 11.168ZM90.1671 10.16C90.5684 10.16 90.9418 10.062 91.2871 9.866C91.6324 9.67 91.9124 9.376 92.1271 8.984C92.3418 8.592 92.4491 8.10667 92.4491 7.528C92.4491 6.94933 92.3418 6.464 92.1271 6.072C91.9218 5.68 91.6464 5.386 91.3011 5.19C90.9558 4.994 90.5871 4.896 90.1951 4.896C89.7938 4.896 89.4204 4.994 89.0751 5.19C88.7298 5.386 88.4498 5.68 88.2351 6.072C88.0204 6.464 87.9131 6.94933 87.9131 7.528C87.9131 8.10667 88.0204 8.592 88.2351 8.984C88.4498 9.376 88.7251 9.67 89.0611 9.866C89.4064 10.062 89.7751 10.16 90.1671 10.16ZM97.7588 11C97.1242 11 96.6248 10.846 96.2608 10.538C95.8968 10.23 95.7148 9.67467 95.7148 8.872V5.05H94.5108V4.056H95.7148L95.8688 2.39H96.8908V4.056H98.9348V5.05H96.8908V8.872C96.8908 9.31067 96.9795 9.60933 97.1568 9.768C97.3342 9.91733 97.6468 9.992 98.0948 9.992H98.8228V11H97.7588ZM102.739 11.168C102.16 11.168 101.68 11.07 101.297 10.874C100.914 10.678 100.63 10.4167 100.443 10.09C100.256 9.76333 100.163 9.40867 100.163 9.026C100.163 8.31667 100.434 7.77067 100.975 7.388C101.516 7.00533 102.254 6.814 103.187 6.814H105.063V6.73C105.063 6.12333 104.904 5.666 104.587 5.358C104.27 5.04067 103.845 4.882 103.313 4.882C102.856 4.882 102.459 4.99867 102.123 5.232C101.796 5.456 101.591 5.78733 101.507 6.226H100.303C100.35 5.722 100.518 5.29733 100.807 4.952C101.106 4.60667 101.474 4.34533 101.913 4.168C102.352 3.98133 102.818 3.888 103.313 3.888C104.284 3.888 105.012 4.14933 105.497 4.672C105.992 5.18533 106.239 5.87133 106.239 6.73V11H105.189L105.119 9.754C104.923 10.146 104.634 10.482 104.251 10.762C103.878 11.0327 103.374 11.168 102.739 11.168ZM102.921 10.174C103.369 10.174 103.752 10.0573 104.069 9.824C104.396 9.59067 104.643 9.28733 104.811 8.914C104.979 8.54067 105.063 8.14867 105.063 7.738V7.724H103.285C102.594 7.724 102.104 7.84533 101.815 8.088C101.535 8.32133 101.395 8.61533 101.395 8.97C101.395 9.334 101.526 9.628 101.787 9.852C102.058 10.0667 102.436 10.174 102.921 10.174ZM110.663 11.168C109.832 11.168 109.142 10.958 108.591 10.538C108.04 10.118 107.718 9.54867 107.625 8.83H108.829C108.904 9.194 109.095 9.51133 109.403 9.782C109.72 10.0433 110.145 10.174 110.677 10.174C111.172 10.174 111.536 10.0713 111.769 9.866C112.002 9.65133 112.119 9.39933 112.119 9.11C112.119 8.69 111.965 8.41 111.657 8.27C111.358 8.13 110.934 8.004 110.383 7.892C110.01 7.81733 109.636 7.71 109.263 7.57C108.89 7.43 108.577 7.234 108.325 6.982C108.073 6.72067 107.947 6.38 107.947 5.96C107.947 5.35333 108.171 4.85867 108.619 4.476C109.076 4.084 109.692 3.888 110.467 3.888C111.204 3.888 111.806 4.07467 112.273 4.448C112.749 4.812 113.024 5.33467 113.099 6.016H111.937C111.89 5.66133 111.736 5.386 111.475 5.19C111.223 4.98467 110.882 4.882 110.453 4.882C110.033 4.882 109.706 4.97067 109.473 5.148C109.249 5.32533 109.137 5.55867 109.137 5.848C109.137 6.128 109.282 6.34733 109.571 6.506C109.87 6.66467 110.271 6.8 110.775 6.912C111.204 7.00533 111.61 7.122 111.993 7.262C112.385 7.39267 112.702 7.59333 112.945 7.864C113.197 8.12533 113.323 8.508 113.323 9.012C113.332 9.63733 113.094 10.1553 112.609 10.566C112.133 10.9673 111.484 11.168 110.663 11.168ZM119.086 11V5.05H118.036V4.056H119.086V2.852C119.086 2.18 119.254 1.69 119.59 1.382C119.926 1.074 120.416 0.92 121.06 0.92H121.76V1.928H121.242C120.888 1.928 120.636 2.00267 120.486 2.152C120.337 2.292 120.262 2.53467 120.262 2.88V4.056H124.574V11H123.398V5.05H120.262V11H119.086ZM124 2.726C123.776 2.726 123.585 2.65133 123.426 2.502C123.268 2.34333 123.188 2.14733 123.188 1.914C123.188 1.69 123.268 1.50333 123.426 1.354C123.585 1.20467 123.776 1.13 124 1.13C124.234 1.13 124.425 1.20467 124.574 1.354C124.733 1.50333 124.812 1.69 124.812 1.914C124.812 2.14733 124.733 2.34333 124.574 2.502C124.425 2.65133 124.234 2.726 124 2.726ZM129.312 11.168C128.481 11.168 127.79 10.958 127.24 10.538C126.689 10.118 126.367 9.54867 126.274 8.83H127.478C127.552 9.194 127.744 9.51133 128.052 9.782C128.369 10.0433 128.794 10.174 129.326 10.174C129.82 10.174 130.184 10.0713 130.418 9.866C130.651 9.65133 130.768 9.39933 130.768 9.11C130.768 8.69 130.614 8.41 130.306 8.27C130.007 8.13 129.582 8.004 129.032 7.892C128.658 7.81733 128.285 7.71 127.912 7.57C127.538 7.43 127.226 7.234 126.974 6.982C126.722 6.72067 126.596 6.38 126.596 5.96C126.596 5.35333 126.82 4.85867 127.268 4.476C127.725 4.084 128.341 3.888 129.116 3.888C129.853 3.888 130.455 4.07467 130.922 4.448C131.398 4.812 131.673 5.33467 131.748 6.016H130.586C130.539 5.66133 130.385 5.386 130.124 5.19C129.872 4.98467 129.531 4.882 129.102 4.882C128.682 4.882 128.355 4.97067 128.122 5.148C127.898 5.32533 127.786 5.55867 127.786 5.848C127.786 6.128 127.93 6.34733 128.22 6.506C128.518 6.66467 128.92 6.8 129.424 6.912C129.853 7.00533 130.259 7.122 130.642 7.262C131.034 7.39267 131.351 7.59333 131.594 7.864C131.846 8.12533 131.972 8.508 131.972 9.012C131.981 9.63733 131.743 10.1553 131.258 10.566C130.782 10.9673 130.133 11.168 129.312 11.168ZM136.844 11.168C136.181 11.168 135.584 11.0187 135.052 10.72C134.529 10.412 134.114 9.98733 133.806 9.446C133.507 8.89533 133.358 8.256 133.358 7.528C133.358 6.8 133.507 6.16533 133.806 5.624C134.114 5.07333 134.529 4.64867 135.052 4.35C135.584 4.042 136.181 3.888 136.844 3.888C137.665 3.888 138.356 4.10267 138.916 4.532C139.485 4.96133 139.844 5.53533 139.994 6.254H138.79C138.696 5.82467 138.468 5.49333 138.104 5.26C137.74 5.01733 137.315 4.896 136.83 4.896C136.438 4.896 136.069 4.994 135.724 5.19C135.378 5.386 135.098 5.68 134.884 6.072C134.669 6.464 134.562 6.94933 134.562 7.528C134.562 8.10667 134.669 8.592 134.884 8.984C135.098 9.376 135.378 9.67467 135.724 9.88C136.069 10.076 136.438 10.174 136.83 10.174C137.315 10.174 137.74 10.0573 138.104 9.824C138.468 9.58133 138.696 9.24067 138.79 8.802H139.994C139.854 9.502 139.499 10.0713 138.93 10.51C138.36 10.9487 137.665 11.168 136.844 11.168ZM143.946 11.168C143.367 11.168 142.887 11.07 142.504 10.874C142.121 10.678 141.837 10.4167 141.65 10.09C141.463 9.76333 141.37 9.40867 141.37 9.026C141.37 8.31667 141.641 7.77067 142.182 7.388C142.723 7.00533 143.461 6.814 144.394 6.814H146.27V6.73C146.27 6.12333 146.111 5.666 145.794 5.358C145.477 5.04067 145.052 4.882 144.52 4.882C144.063 4.882 143.666 4.99867 143.33 5.232C143.003 5.456 142.798 5.78733 142.714 6.226H141.51C141.557 5.722 141.725 5.29733 142.014 4.952C142.313 4.60667 142.681 4.34533 143.12 4.168C143.559 3.98133 144.025 3.888 144.52 3.888C145.491 3.888 146.219 4.14933 146.704 4.672C147.199 5.18533 147.446 5.87133 147.446 6.73V11H146.396L146.326 9.754C146.13 10.146 145.841 10.482 145.458 10.762C145.085 11.0327 144.581 11.168 143.946 11.168ZM144.128 10.174C144.576 10.174 144.959 10.0573 145.276 9.824C145.603 9.59067 145.85 9.28733 146.018 8.914C146.186 8.54067 146.27 8.14867 146.27 7.738V7.724H144.492C143.801 7.724 143.311 7.84533 143.022 8.088C142.742 8.32133 142.602 8.61533 142.602 8.97C142.602 9.334 142.733 9.628 142.994 9.852C143.265 10.0667 143.643 10.174 144.128 10.174ZM149.924 2.516C149.691 2.516 149.495 2.44133 149.336 2.292C149.187 2.13333 149.112 1.93733 149.112 1.704C149.112 1.48 149.187 1.29333 149.336 1.144C149.495 0.994666 149.691 0.92 149.924 0.92C150.148 0.92 150.339 0.994666 150.498 1.144C150.657 1.29333 150.736 1.48 150.736 1.704C150.736 1.93733 150.657 2.13333 150.498 2.292C150.339 2.44133 150.148 2.516 149.924 2.516ZM149.336 11V4.056H150.512V11H149.336ZM155.22 11.168C154.389 11.168 153.698 10.958 153.148 10.538C152.597 10.118 152.275 9.54867 152.182 8.83H153.386C153.46 9.194 153.652 9.51133 153.96 9.782C154.277 10.0433 154.702 10.174 155.234 10.174C155.728 10.174 156.092 10.0713 156.326 9.866C156.559 9.65133 156.676 9.39933 156.676 9.11C156.676 8.69 156.522 8.41 156.214 8.27C155.915 8.13 155.49 8.004 154.94 7.892C154.566 7.81733 154.193 7.71 153.82 7.57C153.446 7.43 153.134 7.234 152.882 6.982C152.63 6.72067 152.504 6.38 152.504 5.96C152.504 5.35333 152.728 4.85867 153.176 4.476C153.633 4.084 154.249 3.888 155.024 3.888C155.761 3.888 156.363 4.07467 156.83 4.448C157.306 4.812 157.581 5.33467 157.656 6.016H156.494C156.447 5.66133 156.293 5.386 156.032 5.19C155.78 4.98467 155.439 4.882 155.01 4.882C154.59 4.882 154.263 4.97067 154.03 5.148C153.806 5.32533 153.694 5.55867 153.694 5.848C153.694 6.128 153.838 6.34733 154.128 6.506C154.426 6.66467 154.828 6.8 155.332 6.912C155.761 7.00533 156.167 7.122 156.55 7.262C156.942 7.39267 157.259 7.59333 157.502 7.864C157.754 8.12533 157.88 8.508 157.88 9.012C157.889 9.63733 157.651 10.1553 157.166 10.566C156.69 10.9673 156.041 11.168 155.22 11.168ZM168.963 14.08V9.852C168.739 10.188 168.417 10.4913 167.997 10.762C167.577 11.0327 167.049 11.168 166.415 11.168C165.724 11.168 165.117 11.0093 164.595 10.692C164.081 10.3747 163.68 9.94067 163.391 9.39C163.111 8.83933 162.971 8.214 162.971 7.514C162.971 6.814 163.115 6.19333 163.405 5.652C163.694 5.10133 164.095 4.672 164.609 4.364C165.122 4.04667 165.729 3.888 166.429 3.888C166.998 3.888 167.502 4.00467 167.941 4.238C168.379 4.47133 168.72 4.798 168.963 5.218L169.075 4.056H170.139V14.08H168.963ZM166.541 10.146C167.007 10.146 167.418 10.0387 167.773 9.824C168.137 9.6 168.417 9.292 168.613 8.9C168.818 8.508 168.921 8.05067 168.921 7.528C168.921 7.00533 168.818 6.548 168.613 6.156C168.417 5.764 168.137 5.46067 167.773 5.246C167.418 5.022 167.007 4.91 166.541 4.91C166.083 4.91 165.673 5.022 165.309 5.246C164.954 5.46067 164.674 5.764 164.469 6.156C164.273 6.548 164.175 7.00533 164.175 7.528C164.175 8.05067 164.273 8.508 164.469 8.9C164.674 9.292 164.954 9.6 165.309 9.824C165.673 10.0387 166.083 10.146 166.541 10.146ZM174.59 11.168C173.769 11.168 173.115 10.9207 172.63 10.426C172.145 9.922 171.902 9.152 171.902 8.116V4.056H173.078V7.99C173.078 9.43667 173.671 10.16 174.856 10.16C175.463 10.16 175.962 9.94533 176.354 9.516C176.755 9.07733 176.956 8.45667 176.956 7.654V4.056H178.132V11H177.068L176.984 9.754C176.769 10.1927 176.447 10.538 176.018 10.79C175.598 11.042 175.122 11.168 174.59 11.168ZM183.19 11.168C182.527 11.168 181.939 11.0187 181.426 10.72C180.912 10.412 180.506 9.98733 180.208 9.446C179.918 8.90467 179.774 8.26533 179.774 7.528C179.774 6.8 179.918 6.16533 180.208 5.624C180.497 5.07333 180.898 4.64867 181.412 4.35C181.934 4.042 182.536 3.888 183.218 3.888C183.89 3.888 184.468 4.042 184.954 4.35C185.448 4.64867 185.826 5.04533 186.088 5.54C186.349 6.03467 186.48 6.56667 186.48 7.136C186.48 7.23867 186.475 7.34133 186.466 7.444C186.466 7.54667 186.466 7.66333 186.466 7.794H180.936C180.964 8.326 181.085 8.76933 181.3 9.124C181.524 9.46933 181.799 9.73067 182.126 9.908C182.462 10.0853 182.816 10.174 183.19 10.174C183.675 10.174 184.081 10.062 184.408 9.838C184.734 9.614 184.972 9.31067 185.122 8.928H186.284C186.097 9.572 185.738 10.1087 185.206 10.538C184.683 10.958 184.011 11.168 183.19 11.168ZM183.19 4.882C182.63 4.882 182.13 5.05467 181.692 5.4C181.262 5.736 181.015 6.23067 180.95 6.884H185.318C185.29 6.25867 185.075 5.76867 184.674 5.414C184.272 5.05933 183.778 4.882 183.19 4.882ZM193.745 11L191.113 4.056H192.345L194.431 9.866L196.531 4.056H197.735L195.103 11H193.745ZM201.853 11.168C201.199 11.168 200.611 11.0187 200.089 10.72C199.566 10.4213 199.151 10.0013 198.843 9.46C198.544 8.90933 198.395 8.26533 198.395 7.528C198.395 6.79067 198.549 6.15133 198.857 5.61C199.165 5.05933 199.58 4.63467 200.103 4.336C200.635 4.03733 201.227 3.888 201.881 3.888C202.534 3.888 203.122 4.03733 203.645 4.336C204.167 4.63467 204.578 5.05933 204.877 5.61C205.185 6.15133 205.339 6.79067 205.339 7.528C205.339 8.26533 205.185 8.90933 204.877 9.46C204.569 10.0013 204.149 10.4213 203.617 10.72C203.094 11.0187 202.506 11.168 201.853 11.168ZM201.853 10.16C202.254 10.16 202.627 10.062 202.973 9.866C203.318 9.67 203.598 9.376 203.813 8.984C204.027 8.592 204.135 8.10667 204.135 7.528C204.135 6.94933 204.027 6.464 203.813 6.072C203.607 5.68 203.332 5.386 202.987 5.19C202.641 4.994 202.273 4.896 201.881 4.896C201.479 4.896 201.106 4.994 200.761 5.19C200.415 5.386 200.135 5.68 199.921 6.072C199.706 6.464 199.599 6.94933 199.599 7.528C199.599 8.10667 199.706 8.592 199.921 8.984C200.135 9.376 200.411 9.67 200.747 9.866C201.092 10.062 201.461 10.16 201.853 10.16ZM210.166 11.168C209.503 11.168 208.906 11.0187 208.374 10.72C207.851 10.412 207.436 9.98733 207.128 9.446C206.829 8.89533 206.68 8.256 206.68 7.528C206.68 6.8 206.829 6.16533 207.128 5.624C207.436 5.07333 207.851 4.64867 208.374 4.35C208.906 4.042 209.503 3.888 210.166 3.888C210.987 3.888 211.678 4.10267 212.238 4.532C212.807 4.96133 213.166 5.53533 213.316 6.254H212.112C212.018 5.82467 211.79 5.49333 211.426 5.26C211.062 5.01733 210.637 4.896 210.152 4.896C209.76 4.896 209.391 4.994 209.046 5.19C208.7 5.386 208.42 5.68 208.206 6.072C207.991 6.464 207.884 6.94933 207.884 7.528C207.884 8.10667 207.991 8.592 208.206 8.984C208.42 9.376 208.7 9.67467 209.046 9.88C209.391 10.076 209.76 10.174 210.152 10.174C210.637 10.174 211.062 10.0573 211.426 9.824C211.79 9.58133 212.018 9.24067 212.112 8.802H213.316C213.176 9.502 212.821 10.0713 212.252 10.51C211.682 10.9487 210.987 11.168 210.166 11.168ZM218.08 11.168C217.418 11.168 216.83 11.0187 216.316 10.72C215.803 10.412 215.397 9.98733 215.098 9.446C214.809 8.90467 214.664 8.26533 214.664 7.528C214.664 6.8 214.809 6.16533 215.098 5.624C215.388 5.07333 215.789 4.64867 216.302 4.35C216.825 4.042 217.427 3.888 218.108 3.888C218.78 3.888 219.359 4.042 219.844 4.35C220.339 4.64867 220.717 5.04533 220.978 5.54C221.24 6.03467 221.37 6.56667 221.37 7.136C221.37 7.23867 221.366 7.34133 221.356 7.444C221.356 7.54667 221.356 7.66333 221.356 7.794H215.826C215.854 8.326 215.976 8.76933 216.19 9.124C216.414 9.46933 216.69 9.73067 217.016 9.908C217.352 10.0853 217.707 10.174 218.08 10.174C218.566 10.174 218.972 10.062 219.298 9.838C219.625 9.614 219.863 9.31067 220.012 8.928H221.174C220.988 9.572 220.628 10.1087 220.096 10.538C219.574 10.958 218.902 11.168 218.08 11.168ZM218.08 4.882C217.52 4.882 217.021 5.05467 216.582 5.4C216.153 5.736 215.906 6.23067 215.84 6.884H220.208C220.18 6.25867 219.966 5.76867 219.564 5.414C219.163 5.05933 218.668 4.882 218.08 4.882ZM216.148 3.286V2.362L218.066 1.228L219.984 2.362V3.286L218.066 2.11L216.148 3.286ZM229.378 11C228.743 11 228.244 10.846 227.88 10.538C227.516 10.23 227.334 9.67467 227.334 8.872V5.05H226.13V4.056H227.334L227.488 2.39H228.51V4.056H230.554V5.05H228.51V8.872C228.51 9.31067 228.599 9.60933 228.776 9.768C228.953 9.91733 229.266 9.992 229.714 9.992H230.442V11H229.378ZM234.979 11.168C234.316 11.168 233.728 11.0187 233.215 10.72C232.701 10.412 232.295 9.98733 231.997 9.446C231.707 8.90467 231.563 8.26533 231.563 7.528C231.563 6.8 231.707 6.16533 231.997 5.624C232.286 5.07333 232.687 4.64867 233.201 4.35C233.723 4.042 234.325 3.888 235.007 3.888C235.679 3.888 236.257 4.042 236.743 4.35C237.237 4.64867 237.615 5.04533 237.877 5.54C238.138 6.03467 238.269 6.56667 238.269 7.136C238.269 7.23867 238.264 7.34133 238.255 7.444C238.255 7.54667 238.255 7.66333 238.255 7.794H232.725C232.753 8.326 232.874 8.76933 233.089 9.124C233.313 9.46933 233.588 9.73067 233.915 9.908C234.251 10.0853 234.605 10.174 234.979 10.174C235.464 10.174 235.87 10.062 236.197 9.838C236.523 9.614 236.761 9.31067 236.911 8.928H238.073C237.886 9.572 237.527 10.1087 236.995 10.538C236.472 10.958 235.8 11.168 234.979 11.168ZM234.979 4.882C234.419 4.882 233.919 5.05467 233.481 5.4C233.051 5.736 232.804 6.23067 232.739 6.884H237.107C237.079 6.25867 236.864 5.76867 236.463 5.414C236.061 5.05933 235.567 4.882 234.979 4.882ZM239.827 11V4.056H240.891L240.975 5.064C241.199 4.69067 241.498 4.40133 241.871 4.196C242.245 3.99067 242.665 3.888 243.131 3.888C243.682 3.888 244.153 4 244.545 4.224C244.947 4.448 245.255 4.78867 245.469 5.246C245.712 4.826 246.043 4.49467 246.463 4.252C246.893 4.00933 247.355 3.888 247.849 3.888C248.68 3.888 249.343 4.14 249.837 4.644C250.332 5.13867 250.579 5.904 250.579 6.94V11H249.417V7.066C249.417 6.34733 249.273 5.806 248.983 5.442C248.694 5.078 248.279 4.896 247.737 4.896C247.177 4.896 246.711 5.11533 246.337 5.554C245.973 5.98333 245.791 6.59933 245.791 7.402V11H244.615V7.066C244.615 6.34733 244.471 5.806 244.181 5.442C243.892 5.078 243.477 4.896 242.935 4.896C242.385 4.896 241.923 5.11533 241.549 5.554C241.185 5.98333 241.003 6.59933 241.003 7.402V11H239.827ZM252.757 11.07C252.523 11.07 252.327 10.9953 252.169 10.846C252.019 10.6873 251.945 10.496 251.945 10.272C251.945 10.048 252.019 9.86133 252.169 9.712C252.327 9.55333 252.523 9.474 252.757 9.474C252.981 9.474 253.167 9.55333 253.317 9.712C253.475 9.86133 253.555 10.048 253.555 10.272C253.555 10.496 253.475 10.6873 253.317 10.846C253.167 10.9953 252.981 11.07 252.757 11.07Z" fill="#727D94" />
</svg>
