<svg width="150" height="44" viewBox="0 0 124 24" fill="none" xmlns="http://www.w3.org/2000/svg">
<path d="M0.90625 25.3438V24.8438V19.2188V18.7188H1.40625H6.47398C6.52872 18.6449 6.59785 18.5544 6.68146 18.4521C6.90594 18.1772 7.23453 17.8168 7.67478 17.454C8.55749 16.7264 9.8916 15.9879 11.7237 15.9126L13.0035 15.86L12.0978 16.7657L8.96465 19.8989C8.88532 19.9782 8.88532 20.1069 8.96465 20.1862C9.55227 20.7738 10.3233 21.0678 11.0969 21.0678L0.90625 25.3438ZM0.90625 25.3438H1.40625M0.90625 25.3438H1.40625M1.40625 25.3438H6.4737C6.53203 25.4224 6.60659 25.5196 6.69752 25.63C6.93366 25.9166 7.2802 26.2918 7.74415 26.6652C8.67479 27.4141 10.0804 28.1562 12 28.1562C13.9641 28.1562 15.8444 27.2952 17.1319 25.8309L17.3822 25.5461L17.1756 25.2282L13.9703 20.2975L13.6382 19.7865M1.40625 25.3438L13.6382 19.7865M13.6382 19.7865L13.2019 20.2121M13.6382 19.7865L13.2019 20.2121M13.2019 20.2121C12.6178 20.7819 11.8584 21.0677 11.097 21.0678L13.2019 20.2121ZM17.5805 18.131L17.7305 18.3125H17.966H23C23.2761 18.3125 23.5 18.5364 23.5 18.8125V25.25C23.5 25.5261 23.2761 25.75 23 25.75H17.966H17.7305L17.5805 25.9315C16.2149 27.5845 14.1521 28.5625 12 28.5625C9.84792 28.5625 7.78509 27.5845 6.41945 25.9315L6.26947 25.75H6.03398H1C0.723858 25.75 0.5 25.5261 0.5 25.25V18.8125C0.5 18.5364 0.723858 18.3125 1 18.3125H6.03398H6.26947L6.41945 18.131C7.78509 16.478 9.84792 15.5 12 15.5C14.1521 15.5 16.2149 16.478 17.5805 18.131ZM22.5938 25.3438H23.0938V24.8438V19.2187V18.7187H22.5938H17.5237C17.4859 18.6678 17.4412 18.6086 17.3895 18.5431C17.2197 18.3273 16.9763 18.0433 16.6518 17.7414C16.0025 17.1374 15.0272 16.4608 13.6677 16.1158L13.3921 16.0459L13.1911 16.2469L9.8343 19.6038L9.33382 20.1043L9.9728 20.4087C10.9416 20.8703 12.1393 20.7018 12.9422 19.8989C12.9422 19.8989 12.9422 19.8989 12.9422 19.8989L13.6683 19.1728L14.8062 20.3108L14.8063 20.3108C15.2984 20.8029 15.9552 21.075 16.6514 21.075C17.0515 21.075 17.4399 20.9851 17.7922 20.8136C17.9011 20.7606 18.0156 20.7372 18.1095 20.7419C18.1994 20.7464 18.253 20.7745 18.2865 20.808C18.3283 20.8498 18.3427 20.8989 18.3417 20.9326C18.3412 20.9483 18.3376 20.9579 18.335 20.9629C18.3329 20.9668 18.3289 20.9729 18.3173 20.9806L18.5945 21.3968L18.3173 20.9806C17.8287 21.306 17.2549 21.4813 16.6514 21.4813C16.497 21.4813 16.3444 21.4696 16.1945 21.447L15.0943 21.2811L15.7007 22.2139L17.5874 25.1163L17.7352 25.3438H18.0066H22.5938Z" stroke="#021B51"/>
<path d="M39.994 27V17.2H41.478L46.392 24.578V17.2H47.876V27H46.392L41.478 19.622V27H39.994ZM53.0571 27.168C52.3944 27.168 51.7971 27.0187 51.2651 26.72C50.7424 26.412 50.3271 25.9873 50.0191 25.446C49.7111 24.8953 49.5571 24.256 49.5571 23.528C49.5571 22.8 49.7111 22.1653 50.0191 21.624C50.3364 21.0733 50.7611 20.6487 51.2931 20.35C51.8251 20.042 52.4178 19.888 53.0711 19.888C53.7338 19.888 54.3264 20.042 54.8491 20.35C55.3811 20.6487 55.8011 21.0733 56.1091 21.624C56.4264 22.1653 56.5851 22.8 56.5851 23.528C56.5851 24.256 56.4264 24.8953 56.1091 25.446C55.8011 25.9873 55.3811 26.412 54.8491 26.72C54.3171 27.0187 53.7198 27.168 53.0571 27.168ZM53.0571 25.894C53.4118 25.894 53.7384 25.8053 54.0371 25.628C54.3451 25.4507 54.5924 25.1893 54.7791 24.844C54.9658 24.4893 55.0591 24.0507 55.0591 23.528C55.0591 23.0053 54.9658 22.5713 54.7791 22.226C54.6018 21.8713 54.3591 21.6053 54.0511 21.428C53.7524 21.2507 53.4258 21.162 53.0711 21.162C52.7164 21.162 52.3851 21.2507 52.0771 21.428C51.7784 21.6053 51.5358 21.8713 51.3491 22.226C51.1624 22.5713 51.0691 23.0053 51.0691 23.528C51.0691 24.0507 51.1624 24.4893 51.3491 24.844C51.5358 25.1893 51.7784 25.4507 52.0771 25.628C52.3758 25.8053 52.7024 25.894 53.0571 25.894ZM60.8285 27C60.1472 27 59.6058 26.8367 59.2045 26.51C58.8032 26.174 58.6025 25.5813 58.6025 24.732V21.302H57.4125V20.056H58.6025L58.7845 18.292H60.0865V20.056H62.0465V21.302H60.0865V24.732C60.0865 25.1147 60.1658 25.3807 60.3245 25.53C60.4925 25.67 60.7772 25.74 61.1785 25.74H61.9765V27H60.8285ZM65.9287 27.168C65.3407 27.168 64.8553 27.07 64.4727 26.874C64.09 26.678 63.8053 26.4213 63.6187 26.104C63.432 25.7773 63.3387 25.4227 63.3387 25.04C63.3387 24.368 63.6 23.836 64.1227 23.444C64.6453 23.052 65.392 22.856 66.3627 22.856H68.1827V22.73C68.1827 22.1887 68.0333 21.7827 67.7347 21.512C67.4453 21.2413 67.0673 21.106 66.6007 21.106C66.19 21.106 65.8307 21.2087 65.5227 21.414C65.224 21.61 65.042 21.904 64.9767 22.296H63.4927C63.5393 21.792 63.7073 21.3627 63.9967 21.008C64.2953 20.644 64.6687 20.3687 65.1167 20.182C65.574 19.986 66.0733 19.888 66.6147 19.888C67.5853 19.888 68.3367 20.1447 68.8687 20.658C69.4007 21.162 69.6667 21.8527 69.6667 22.73V27H68.3787L68.2527 25.81C68.0567 26.1927 67.772 26.5147 67.3987 26.776C67.0253 27.0373 66.5353 27.168 65.9287 27.168ZM66.2227 25.964C66.624 25.964 66.96 25.8707 67.2307 25.684C67.5107 25.488 67.7253 25.2313 67.8747 24.914C68.0333 24.5967 68.1313 24.2467 68.1687 23.864H66.5167C65.9287 23.864 65.5087 23.9667 65.2567 24.172C65.014 24.3773 64.8927 24.634 64.8927 24.942C64.8927 25.2593 65.0093 25.5113 65.2427 25.698C65.4853 25.8753 65.812 25.964 66.2227 25.964ZM74.169 27.168C73.2917 27.168 72.5683 26.9533 71.999 26.524C71.4297 26.0947 71.103 25.5253 71.019 24.816H72.517C72.5917 25.1333 72.769 25.4087 73.049 25.642C73.329 25.866 73.6977 25.978 74.155 25.978C74.603 25.978 74.9297 25.8847 75.135 25.698C75.3403 25.5113 75.443 25.2967 75.443 25.054C75.443 24.6993 75.2983 24.4613 75.009 24.34C74.729 24.2093 74.337 24.0927 73.833 23.99C73.441 23.906 73.049 23.794 72.657 23.654C72.2743 23.514 71.9523 23.318 71.691 23.066C71.439 22.8047 71.313 22.4547 71.313 22.016C71.313 21.4093 71.5463 20.9053 72.013 20.504C72.4797 20.0933 73.133 19.888 73.973 19.888C74.7477 19.888 75.373 20.0747 75.849 20.448C76.3343 20.8213 76.619 21.3487 76.703 22.03H75.275C75.2283 21.7313 75.0883 21.498 74.855 21.33C74.631 21.162 74.3277 21.078 73.945 21.078C73.5717 21.078 73.2823 21.1573 73.077 21.316C72.8717 21.4653 72.769 21.6613 72.769 21.904C72.769 22.1467 72.909 22.338 73.189 22.478C73.4783 22.618 73.8563 22.744 74.323 22.856C74.7897 22.9587 75.219 23.08 75.611 23.22C76.0123 23.3507 76.3343 23.5467 76.577 23.808C76.8197 24.0693 76.941 24.452 76.941 24.956C76.9503 25.5907 76.703 26.118 76.199 26.538C75.7043 26.958 75.0277 27.168 74.169 27.168ZM82.4384 27V21.302H81.4444V20.056H82.4384V19.048C82.4384 18.292 82.6251 17.7507 82.9984 17.424C83.3811 17.088 83.9177 16.92 84.6084 16.92H85.3364V18.18H84.8324C84.5057 18.18 84.2724 18.25 84.1324 18.39C83.9924 18.5207 83.9224 18.7447 83.9224 19.062V20.056H88.3184V27H86.8344V21.302H83.9224V27H82.4384ZM87.5904 18.894C87.3104 18.894 87.0771 18.81 86.8904 18.642C86.7131 18.4647 86.6244 18.2407 86.6244 17.97C86.6244 17.7087 86.7131 17.494 86.8904 17.326C87.0771 17.158 87.3104 17.074 87.5904 17.074C87.8704 17.074 88.0991 17.158 88.2764 17.326C88.4631 17.494 88.5564 17.7087 88.5564 17.97C88.5564 18.2407 88.4631 18.4647 88.2764 18.642C88.0991 18.81 87.8704 18.894 87.5904 18.894ZM93.0635 27.168C92.1862 27.168 91.4628 26.9533 90.8935 26.524C90.3242 26.0947 89.9975 25.5253 89.9135 24.816H91.4115C91.4862 25.1333 91.6635 25.4087 91.9435 25.642C92.2235 25.866 92.5922 25.978 93.0495 25.978C93.4975 25.978 93.8242 25.8847 94.0295 25.698C94.2348 25.5113 94.3375 25.2967 94.3375 25.054C94.3375 24.6993 94.1928 24.4613 93.9035 24.34C93.6235 24.2093 93.2315 24.0927 92.7275 23.99C92.3355 23.906 91.9435 23.794 91.5515 23.654C91.1688 23.514 90.8468 23.318 90.5855 23.066C90.3335 22.8047 90.2075 22.4547 90.2075 22.016C90.2075 21.4093 90.4408 20.9053 90.9075 20.504C91.3742 20.0933 92.0275 19.888 92.8675 19.888C93.6422 19.888 94.2675 20.0747 94.7435 20.448C95.2288 20.8213 95.5135 21.3487 95.5975 22.03H94.1695C94.1228 21.7313 93.9828 21.498 93.7495 21.33C93.5255 21.162 93.2222 21.078 92.8395 21.078C92.4662 21.078 92.1768 21.1573 91.9715 21.316C91.7662 21.4653 91.6635 21.6613 91.6635 21.904C91.6635 22.1467 91.8035 22.338 92.0835 22.478C92.3728 22.618 92.7508 22.744 93.2175 22.856C93.6842 22.9587 94.1135 23.08 94.5055 23.22C94.9068 23.3507 95.2288 23.5467 95.4715 23.808C95.7142 24.0693 95.8355 24.452 95.8355 24.956C95.8448 25.5907 95.5975 26.118 95.0935 26.538C94.5988 26.958 93.9222 27.168 93.0635 27.168ZM100.746 27.168C100.064 27.168 99.4529 27.014 98.9116 26.706C98.3796 26.398 97.9596 25.9733 97.6516 25.432C97.3529 24.8813 97.2036 24.2467 97.2036 23.528C97.2036 22.8093 97.3529 22.1793 97.6516 21.638C97.9596 21.0873 98.3796 20.658 98.9116 20.35C99.4529 20.042 100.064 19.888 100.746 19.888C101.604 19.888 102.323 20.112 102.902 20.56C103.49 21.008 103.868 21.6147 104.036 22.38H102.482C102.388 21.9973 102.183 21.6987 101.866 21.484C101.548 21.2693 101.175 21.162 100.746 21.162C100.382 21.162 100.046 21.2553 99.7376 21.442C99.4296 21.6193 99.1822 21.8853 98.9956 22.24C98.8089 22.5853 98.7156 23.0147 98.7156 23.528C98.7156 24.0413 98.8089 24.4753 98.9956 24.83C99.1822 25.1753 99.4296 25.4413 99.7376 25.628C100.046 25.8147 100.382 25.908 100.746 25.908C101.175 25.908 101.548 25.8007 101.866 25.586C102.183 25.3713 102.388 25.068 102.482 24.676H104.036C103.877 25.4227 103.504 26.0247 102.916 26.482C102.328 26.9393 101.604 27.168 100.746 27.168ZM107.997 27.168C107.409 27.168 106.924 27.07 106.541 26.874C106.158 26.678 105.874 26.4213 105.687 26.104C105.5 25.7773 105.407 25.4227 105.407 25.04C105.407 24.368 105.668 23.836 106.191 23.444C106.714 23.052 107.46 22.856 108.431 22.856H110.251V22.73C110.251 22.1887 110.102 21.7827 109.803 21.512C109.514 21.2413 109.136 21.106 108.669 21.106C108.258 21.106 107.899 21.2087 107.591 21.414C107.292 21.61 107.11 21.904 107.045 22.296H105.561C105.608 21.792 105.776 21.3627 106.065 21.008C106.364 20.644 106.737 20.3687 107.185 20.182C107.642 19.986 108.142 19.888 108.683 19.888C109.654 19.888 110.405 20.1447 110.937 20.658C111.469 21.162 111.735 21.8527 111.735 22.73V27H110.447L110.321 25.81C110.125 26.1927 109.84 26.5147 109.467 26.776C109.094 27.0373 108.604 27.168 107.997 27.168ZM108.291 25.964C108.692 25.964 109.028 25.8707 109.299 25.684C109.579 25.488 109.794 25.2313 109.943 24.914C110.102 24.5967 110.2 24.2467 110.237 23.864H108.585C107.997 23.864 107.577 23.9667 107.325 24.172C107.082 24.3773 106.961 24.634 106.961 24.942C106.961 25.2593 107.078 25.5113 107.311 25.698C107.554 25.8753 107.88 25.964 108.291 25.964ZM114.305 18.74C114.025 18.74 113.792 18.656 113.605 18.488C113.428 18.3107 113.339 18.0913 113.339 17.83C113.339 17.5687 113.428 17.354 113.605 17.186C113.792 17.0087 114.025 16.92 114.305 16.92C114.585 16.92 114.814 17.0087 114.991 17.186C115.178 17.354 115.271 17.5687 115.271 17.83C115.271 18.0913 115.178 18.3107 114.991 18.488C114.814 18.656 114.585 18.74 114.305 18.74ZM113.563 27V20.056H115.047V27H113.563ZM119.778 27.168C118.901 27.168 118.178 26.9533 117.608 26.524C117.039 26.0947 116.712 25.5253 116.628 24.816H118.126C118.201 25.1333 118.378 25.4087 118.658 25.642C118.938 25.866 119.307 25.978 119.764 25.978C120.212 25.978 120.539 25.8847 120.744 25.698C120.95 25.5113 121.052 25.2967 121.052 25.054C121.052 24.6993 120.908 24.4613 120.618 24.34C120.338 24.2093 119.946 24.0927 119.442 23.99C119.05 23.906 118.658 23.794 118.266 23.654C117.884 23.514 117.562 23.318 117.3 23.066C117.048 22.8047 116.922 22.4547 116.922 22.016C116.922 21.4093 117.156 20.9053 117.622 20.504C118.089 20.0933 118.742 19.888 119.582 19.888C120.357 19.888 120.982 20.0747 121.458 20.448C121.944 20.8213 122.228 21.3487 122.312 22.03H120.884C120.838 21.7313 120.698 21.498 120.464 21.33C120.24 21.162 119.937 21.078 119.554 21.078C119.181 21.078 118.892 21.1573 118.686 21.316C118.481 21.4653 118.378 21.6613 118.378 21.904C118.378 22.1467 118.518 22.338 118.798 22.478C119.088 22.618 119.466 22.744 119.932 22.856C120.399 22.9587 120.828 23.08 121.22 23.22C121.622 23.3507 121.944 23.5467 122.186 23.808C122.429 24.0693 122.55 24.452 122.55 24.956C122.56 25.5907 122.312 26.118 121.808 26.538C121.314 26.958 120.637 27.168 119.778 27.168Z" fill="#021B51"/>
</svg>
