<svg width="132" height="25" viewBox="0 0 132 25" fill="none" xmlns="http://www.w3.org/2000/svg">
<path d="M44.833 5.79783C46.873 5.79783 48.1278 6.63121 48.4878 6.90106L49.8547 4.42209C49.1374 3.88238 47.4104 2.89026 44.6556 2.89026C39.613 2.89026 36.2739 6.42749 36.2739 11.0256C36.2739 15.6 39.5922 19.1398 44.6556 19.1398C47.4808 19.1398 49.1374 18.1715 49.8547 17.6292L48.5087 15.174C48.1043 15.4439 46.873 16.2323 44.833 16.2323C41.5617 16.2323 39.4539 14.1581 39.4539 11.0045C39.4539 7.84821 41.5826 5.79783 44.833 5.79783Z" fill="#00AD8C"/>
<path d="M58.2156 9.56404C57.4539 8.86559 56.3765 8.37085 55.0095 8.37085C52.1634 8.37085 49.9878 10.6911 49.9878 13.7574C49.9878 16.8237 52.0956 19.1439 54.9417 19.1439C56.4652 19.1439 57.5869 18.4667 58.3486 17.5222L58.4608 18.9429H61.0617V8.57192H58.3486L58.2156 9.56404ZM55.5913 16.4586C54.0886 16.4586 52.946 15.2866 52.946 13.7547C52.946 12.1991 54.0886 11.0509 55.5913 11.0509C57.206 11.0509 58.2365 12.1779 58.2365 13.7547C58.2599 15.3104 57.206 16.4586 55.5913 16.4586Z" fill="#00AD8C"/>
<path d="M66.9989 10.7361C68.1415 10.7361 69.2398 11.1408 70.1581 11.7282L71.3241 9.54287C70.4059 8.91056 68.8354 8.37085 67.0641 8.37085C64.4633 8.37085 62.7598 9.65664 62.7598 11.6382C62.7598 13.6886 64.7111 14.432 66.4589 14.8606C67.8259 15.1755 68.3189 15.4242 68.3189 15.9639C68.3189 16.5036 67.8702 16.7761 67.0198 16.7761C65.6085 16.7761 64.3068 16.2364 63.5242 15.649L62.3137 17.8343C63.3885 18.5778 64.9355 19.1413 66.7302 19.1413C69.7328 19.1413 71.3241 17.7656 71.3241 15.784C71.3241 13.5987 69.5528 12.9663 67.8728 12.5616C66.3259 12.2018 65.7885 12.0218 65.7885 11.5033C65.7885 10.9821 66.2607 10.7361 66.9989 10.7361Z" fill="#00AD8C"/>
<path d="M84.7041 19.1439C84.0362 19.1439 83.4806 18.6624 83.3606 18.0275C83.3606 18.0222 83.358 18.0169 83.358 18.0116C83.3528 17.9878 83.3502 17.964 83.3475 17.9402C83.3449 17.9031 83.3423 17.8687 83.3397 17.8502V17.6465C83.3397 17.6465 83.3397 17.6465 83.3397 17.6439V13.215C83.3397 10.3075 81.4354 8.37086 78.6989 8.37086C77.3528 8.37086 76.3667 8.84443 75.7406 9.49791V2.84674H72.8032V18.9376H75.7406V13.5299C75.7406 12.1541 76.638 11.0271 78.1171 11.0271C79.4632 11.0271 80.4023 12.0642 80.4023 13.6198V17.7947H80.4049C80.4258 20.1678 82.3432 22.0859 84.7093 22.0859C84.7119 22.0859 84.7145 22.0859 84.7171 22.0859V19.1439C84.7119 19.1439 84.7067 19.1439 84.7041 19.1439Z" fill="#00AD8C"/>
<path d="M97.8183 8.36823C94.7244 8.36823 92.2383 10.6885 92.2383 13.7548C92.2383 16.8211 94.727 19.1413 97.8183 19.1413C100.912 19.1413 103.398 16.8211 103.398 13.7548C103.398 10.6885 100.912 8.36823 97.8183 8.36823ZM97.8183 16.4586C96.3392 16.4586 95.1965 15.2654 95.1965 13.7548C95.1965 12.2679 96.3392 11.0509 97.8183 11.0509C99.3209 11.0509 100.44 12.2679 100.44 13.7548C100.443 15.2654 99.3209 16.4586 97.8183 16.4586Z" fill="#021B51"/>
<path d="M110.752 8.36823C108.981 8.36823 107.702 9.33653 107.345 10.5985L107.233 8.56929H104.789V18.9349H107.726V13.7336C107.726 12.2679 108.736 11.1858 110.371 11.1858C110.841 11.1858 111.112 11.2758 111.402 11.3896L111.649 8.46082C111.378 8.39204 111.065 8.36823 110.752 8.36823Z" fill="#021B51"/>
<path d="M117.634 11.0509C118.709 11.0509 119.426 11.4345 119.898 11.7493L121.085 9.51906C120.48 9.09047 119.338 8.37085 117.298 8.37085C114.071 8.37085 111.626 10.7361 111.626 13.7574C111.626 16.7999 114.003 19.1439 117.298 19.1439C119.338 19.1439 120.436 18.3767 121.064 17.9719L119.898 15.7628C119.429 16.0776 118.732 16.4612 117.59 16.4612C115.818 16.4612 114.631 15.3342 114.631 13.7574C114.631 12.1806 115.839 11.0509 117.634 11.0509Z" fill="#021B51"/>
<path d="M132 13.7786C132 10.6673 129.984 8.37085 126.866 8.37085C123.707 8.37085 121.487 10.7361 121.487 13.7574C121.487 16.7999 123.884 19.1439 127.158 19.1439C129.511 19.1439 130.79 18.2867 131.418 17.7232L130.208 15.6041C129.759 15.9639 128.974 16.6623 127.474 16.6623C125.859 16.6623 124.717 15.7602 124.38 14.567H131.956C131.956 14.567 132 14.1595 132 13.7786ZM124.401 12.6727C124.737 11.3869 125.7 10.7123 126.978 10.7123C128.144 10.7123 129.063 11.5007 129.198 12.6727H124.401Z" fill="#021B51"/>
<path d="M89.0113 7.51364C89.0113 5.958 89.9974 5.3495 91.0069 5.3495C91.7008 5.3495 92.0609 5.57438 92.2617 5.68814L93.3835 3.47902C92.8904 3.14038 92.0374 2.66681 90.6704 2.66681C87.7565 2.66681 86.0765 4.4685 86.0765 7.3549V8.5719H84.647V11.0509H86.0765V17.7761H86.0739C86.0687 18.5275 85.4661 19.136 84.72 19.1439V22.0832C87.0861 22.0779 89.0061 20.1519 89.0165 17.7735H89.0139V11.0509H92.1078V8.5719H89.0139V7.51364H89.0113Z" fill="#021B51"/>
<path d="M24.3574 8.70154C24.2583 8.93701 24.0339 9.09045 23.7835 9.0931C23.7809 9.0931 23.7809 9.0931 23.7809 9.0931H16.3201L9.84529 15.6596H8.08704L15.6261 8.01367C15.7435 7.89727 15.9027 7.83112 16.0618 7.83112H22.2809L15.8035 1.26198H2.12619L8.78095 8.01367C9.02356 8.25972 9.02356 8.66186 8.78356 8.9079L2.12619 15.6596H8.08443C7.834 15.6596 7.60965 15.8131 7.51052 16.0512C7.414 16.2866 7.46878 16.5565 7.64617 16.7364L7.82617 16.9189H0.620975C0.370541 16.9189 0.143585 16.7655 0.047064 16.5274C-0.0494574 16.2893 0.00532503 16.0194 0.185324 15.8395L7.46356 8.45814L0.185324 1.07678C0.00532503 0.899521 -0.0494574 0.629665 0.047064 0.391556C0.146194 0.153448 0.370541 0 0.620975 0H16.0592C16.2209 0 16.3801 0.0661413 16.4974 0.18255L24.0418 7.83112L24.2218 8.01367C24.3992 8.19887 24.4539 8.46608 24.3574 8.70154Z" fill="#00AD8C"/>
<path d="M31.8236 24.3584C31.7244 24.5965 31.4975 24.75 31.2471 24.75H15.8036C15.6419 24.75 15.4828 24.6838 15.368 24.5674L7.82887 16.9215L7.64887 16.739C7.47148 16.5591 7.4167 16.2892 7.51322 16.0537C7.61235 15.8156 7.8367 15.6622 8.08713 15.6622H15.548L22.0227 9.09303H23.781C23.7836 9.09303 23.7836 9.09303 23.7836 9.09303L16.2445 16.739C16.1193 16.8607 15.9654 16.9215 15.8036 16.9215H9.58713L16.0645 23.4907H29.7445L23.0871 16.739C22.9697 16.6199 22.9071 16.4612 22.9071 16.2918C22.9071 16.1225 22.9723 15.9638 23.0871 15.8447L29.7445 9.09303H23.7836C24.034 9.09038 24.2584 8.93694 24.3575 8.70147C24.4514 8.46601 24.3993 8.1988 24.2219 8.0136L24.0419 7.83105H31.2444C31.4949 7.83105 31.7218 7.9845 31.821 8.21997C31.9175 8.45807 31.8627 8.72793 31.6853 8.91048L24.4071 16.2918L31.6853 23.6732C31.8627 23.8531 31.9175 24.123 31.8236 24.3584Z" fill="#021B51"/>
</svg>
